<?xml version="1.0" encoding="UTF-8" standalone="no"?>
<!DOCTYPE svg PUBLIC "-//W3C//DTD SVG 1.1//EN"
 "http://www.w3.org/Graphics/SVG/1.1/DTD/svg11.dtd">
<!-- Generated by graphviz version 2.43.0 (0)
 -->
<!-- Title: fsm Pages: 1 -->
<svg width="834pt" height="1113pt"
 viewBox="0.00 0.00 833.60 1112.60" xmlns="http://www.w3.org/2000/svg" xmlns:xlink="http://www.w3.org/1999/xlink">
<g id="graph0" class="graph" transform="scale(1 1) rotate(0) translate(28.8 1083.8)">
<title>fsm</title>
<polygon fill="white" stroke="transparent" points="-28.8,28.8 -28.8,-1083.8 804.8,-1083.8 804.8,28.8 -28.8,28.8"/>
<text text-anchor="middle" x="388" y="-1039" font-family="Helvetica,sans-Serif" font-size="15.00">CHUISA ARCITEP &#45; High&#45;level FSM (Raspberry Pi) &#160;· &#160;Open &amp; Obstacle</text>
<text text-anchor="middle" x="388" y="-1022" font-family="Helvetica,sans-Serif" font-size="15.00">12 corners = 3 laps. &#160;&#160;Low&#45;level Nano FSM: IDLE &#45;&gt; READY (after gyro calibration) &#45;&gt; RUN (at button).</text>
<g id="clust1" class="cluster">
<title>cluster_legend</title>
<polygon fill="white" stroke="#aaaaaa" stroke-dasharray="5,2" points="561.75,-536 561.75,-1005 671.75,-1005 671.75,-536 561.75,-536"/>
<text text-anchor="middle" x="616.75" y="-992.2" font-family="Helvetica,sans-Serif" font-size="11.00">Legend</text>
</g>
<!-- start -->
<g id="node1" class="node">
<title>start</title>
<ellipse fill="black" stroke="black" cx="427.75" cy="-959" rx="8" ry="8"/>
</g>
<!-- INIT -->
<g id="node2" class="node">
<title>INIT</title>
<path fill="#cfe2f3" stroke="#1f4e79" d="M485.75,-892C485.75,-892 369.75,-892 369.75,-892 363.75,-892 357.75,-886 357.75,-880 357.75,-880 357.75,-860 357.75,-860 357.75,-854 363.75,-848 369.75,-848 369.75,-848 485.75,-848 485.75,-848 491.75,-848 497.75,-854 497.75,-860 497.75,-860 497.75,-880 497.75,-880 497.75,-886 491.75,-892 485.75,-892"/>
<text text-anchor="middle" x="427.75" y="-879.2" font-family="Helvetica,sans-Serif" font-size="11.00">INIT</text>
<text text-anchor="middle" x="427.75" y="-867.2" font-family="Helvetica,sans-Serif" font-size="11.00">sensor init · gyro bias</text>
<text text-anchor="middle" x="427.75" y="-855.2" font-family="Helvetica,sans-Serif" font-size="11.00">calibration (robot still)</text>
</g>
<!-- start&#45;&gt;INIT -->
<g id="edge1" class="edge">
<title>start&#45;&gt;INIT</title>
<path fill="none" stroke="#333333" d="M427.75,-950.88C427.75,-940.39 427.75,-920.15 427.75,-902.67"/>
<polygon fill="#333333" stroke="#333333" points="431.25,-902.25 427.75,-892.25 424.25,-902.25 431.25,-902.25"/>
</g>
<!-- WAIT -->
<g id="node3" class="node">
<title>WAIT</title>
<path fill="#cfe2f3" stroke="#1f4e79" d="M463.75,-790C463.75,-790 391.75,-790 391.75,-790 385.75,-790 379.75,-784 379.75,-778 379.75,-778 379.75,-766 379.75,-766 379.75,-760 385.75,-754 391.75,-754 391.75,-754 463.75,-754 463.75,-754 469.75,-754 475.75,-760 475.75,-766 475.75,-766 475.75,-778 475.75,-778 475.75,-784 469.75,-790 463.75,-790"/>
<text text-anchor="middle" x="427.75" y="-769.2" font-family="Helvetica,sans-Serif" font-size="11.00">WAIT_BUTTON</text>
</g>
<!-- INIT&#45;&gt;WAIT -->
<g id="edge2" class="edge">
<title>INIT&#45;&gt;WAIT</title>
<path fill="none" stroke="#333333" d="M427.75,-847.69C427.75,-833.74 427.75,-815.36 427.75,-800.33"/>
<polygon fill="#333333" stroke="#333333" points="431.25,-800.09 427.75,-790.09 424.25,-800.09 431.25,-800.09"/>
<text text-anchor="middle" x="440.75" y="-816.8" font-family="Helvetica,sans-Serif" font-size="9.00">ready</text>
</g>
<!-- DETECT -->
<g id="node4" class="node">
<title>DETECT</title>
<path fill="#cfe2f3" stroke="#1f4e79" d="M498.75,-686C498.75,-686 356.75,-686 356.75,-686 350.75,-686 344.75,-680 344.75,-674 344.75,-674 344.75,-654 344.75,-654 344.75,-648 350.75,-642 356.75,-642 356.75,-642 498.75,-642 498.75,-642 504.75,-642 510.75,-648 510.75,-654 510.75,-654 510.75,-674 510.75,-674 510.75,-680 504.75,-686 498.75,-686"/>
<text text-anchor="middle" x="427.75" y="-673.2" font-family="Helvetica,sans-Serif" font-size="11.00">DETECT_DIR</text>
<text text-anchor="middle" x="427.75" y="-661.2" font-family="Helvetica,sans-Serif" font-size="11.00">infer CW/CCW from the 1st</text>
<text text-anchor="middle" x="427.75" y="-649.2" font-family="Helvetica,sans-Serif" font-size="11.00">orange/blue line (rule 9.9)</text>
</g>
<!-- WAIT&#45;&gt;DETECT -->
<g id="edge3" class="edge">
<title>WAIT&#45;&gt;DETECT</title>
<path fill="none" stroke="#333333" d="M427.75,-753.97C427.75,-738.44 427.75,-715.1 427.75,-696.23"/>
<polygon fill="#333333" stroke="#333333" points="431.25,-696 427.75,-686 424.25,-696 431.25,-696"/>
<text text-anchor="middle" x="483.25" y="-722.8" font-family="Helvetica,sans-Serif" font-size="9.00">button pressed</text>
<text text-anchor="middle" x="483.25" y="-712.8" font-family="Helvetica,sans-Serif" font-size="9.00">(immediate move, 9.14)</text>
</g>
<!-- DRIVE -->
<g id="node5" class="node">
<title>DRIVE</title>
<path fill="#d9e8f5" stroke="#1f4e79" d="M538.75,-584C538.75,-584 316.75,-584 316.75,-584 310.75,-584 304.75,-578 304.75,-572 304.75,-572 304.75,-552 304.75,-552 304.75,-546 310.75,-540 316.75,-540 316.75,-540 538.75,-540 538.75,-540 544.75,-540 550.75,-546 550.75,-552 550.75,-552 550.75,-572 550.75,-572 550.75,-578 544.75,-584 538.75,-584"/>
<text text-anchor="middle" x="427.75" y="-571.2" font-family="Helvetica,sans-Serif" font-size="11.00">DRIVE &#160;&#45; &#160;wall&#45;following (PID)</text>
<text text-anchor="middle" x="427.75" y="-559.2" font-family="Helvetica,sans-Serif" font-size="11.00">Obstacle: pillar setpoint offset</text>
<text text-anchor="middle" x="427.75" y="-547.2" font-family="Helvetica,sans-Serif" font-size="11.00">RED &#45;&gt; pass RIGHT · GREEN &#45;&gt; pass LEFT</text>
</g>
<!-- DETECT&#45;&gt;DRIVE -->
<g id="edge4" class="edge">
<title>DETECT&#45;&gt;DRIVE</title>
<path fill="none" stroke="#333333" d="M427.75,-641.79C427.75,-628 427.75,-609.78 427.75,-594.34"/>
<polygon fill="#333333" stroke="#333333" points="431.25,-594.18 427.75,-584.18 424.25,-594.18 431.25,-594.18"/>
<text text-anchor="middle" x="480.75" y="-610.8" font-family="Helvetica,sans-Serif" font-size="9.00">direction set (CW/CCW)</text>
</g>
<!-- TURN -->
<g id="node6" class="node">
<title>TURN</title>
<path fill="#cfe2f3" stroke="#1f4e79" d="M147.25,-472C147.25,-472 24.25,-472 24.25,-472 18.25,-472 12.25,-466 12.25,-460 12.25,-460 12.25,-440 12.25,-440 12.25,-434 18.25,-428 24.25,-428 24.25,-428 147.25,-428 147.25,-428 153.25,-428 159.25,-434 159.25,-440 159.25,-440 159.25,-460 159.25,-460 159.25,-466 153.25,-472 147.25,-472"/>
<text text-anchor="middle" x="85.75" y="-459.2" font-family="Helvetica,sans-Serif" font-size="11.00">TURN_90</text>
<text text-anchor="middle" x="85.75" y="-447.2" font-family="Helvetica,sans-Serif" font-size="11.00">yaw&#45;guided 90 deg turn</text>
<text text-anchor="middle" x="85.75" y="-435.2" font-family="Helvetica,sans-Serif" font-size="11.00">(corner count ++)</text>
</g>
<!-- DRIVE&#45;&gt;TURN -->
<g id="edge5" class="edge">
<title>DRIVE&#45;&gt;TURN</title>
<path fill="none" stroke="#333333" d="M304.43,-549.43C263.37,-542.8 218.09,-532.37 178.75,-516 156.71,-506.83 134.7,-491.78 117.63,-478.47"/>
<polygon fill="#333333" stroke="#333333" points="119.66,-475.61 109.67,-472.1 115.3,-481.08 119.66,-475.61"/>
<text text-anchor="middle" x="241.75" y="-508.8" font-family="Helvetica,sans-Serif" font-size="9.00">corner: lateral ToF loses wall</text>
<text text-anchor="middle" x="241.75" y="-498.8" font-family="Helvetica,sans-Serif" font-size="9.00">OR front ToF &lt; threshold</text>
</g>
<!-- ESTOP -->
<g id="node12" class="node">
<title>ESTOP</title>
<path fill="#ffe0e0" stroke="#c00000" d="M398.25,-472C398.25,-472 207.25,-472 207.25,-472 201.25,-472 195.25,-466 195.25,-460 195.25,-460 195.25,-440 195.25,-440 195.25,-434 201.25,-428 207.25,-428 207.25,-428 398.25,-428 398.25,-428 404.25,-428 410.25,-434 410.25,-440 410.25,-440 410.25,-460 410.25,-460 410.25,-466 404.25,-472 398.25,-472"/>
<text text-anchor="middle" x="302.75" y="-459.2" font-family="Helvetica,sans-Serif" font-size="11.00">ESTOP &#160;(failsafe)</text>
<text text-anchor="middle" x="302.75" y="-447.2" font-family="Helvetica,sans-Serif" font-size="11.00">reachable from ANY state</text>
<text text-anchor="middle" x="302.75" y="-435.2" font-family="Helvetica,sans-Serif" font-size="11.00">comm loss &#45;&gt; motor 0, steer center</text>
</g>
<!-- DRIVE&#45;&gt;ESTOP -->
<g id="edge15" class="edge">
<title>DRIVE&#45;&gt;ESTOP</title>
<path fill="none" stroke="#c00000" stroke-dasharray="5,2" d="M357.74,-539.92C345.53,-533.76 333.86,-525.92 324.75,-516 316.21,-506.7 310.97,-493.96 307.77,-482.23"/>
<polygon fill="#c00000" stroke="#c00000" points="311.13,-481.22 305.44,-472.28 304.31,-482.82 311.13,-481.22"/>
<text text-anchor="middle" x="366.75" y="-503.8" font-family="Helvetica,sans-Serif" font-size="9.00" fill="#c00000">failsafe (any state)</text>
</g>
<!-- RECOVERY -->
<g id="node13" class="node">
<title>RECOVERY</title>
<path fill="#fde9d9" stroke="#e69138" d="M635.25,-472C635.25,-472 458.25,-472 458.25,-472 452.25,-472 446.25,-466 446.25,-460 446.25,-460 446.25,-440 446.25,-440 446.25,-434 452.25,-428 458.25,-428 458.25,-428 635.25,-428 635.25,-428 641.25,-428 647.25,-434 647.25,-440 647.25,-440 647.25,-460 647.25,-460 647.25,-466 641.25,-472 635.25,-472"/>
<text text-anchor="middle" x="546.75" y="-459.2" font-family="Helvetica,sans-Serif" font-size="11.00">RECOVERY</text>
<text text-anchor="middle" x="546.75" y="-447.2" font-family="Helvetica,sans-Serif" font-size="11.00">wrong pillar side: correct BEFORE</text>
<text text-anchor="middle" x="546.75" y="-435.2" font-family="Helvetica,sans-Serif" font-size="11.00">crossing the radial line (App. A.5)</text>
</g>
<!-- DRIVE&#45;&gt;RECOVERY -->
<g id="edge13" class="edge">
<title>DRIVE&#45;&gt;RECOVERY</title>
<path fill="none" stroke="#e69138" stroke-dasharray="5,2" d="M420.13,-539.85C416.62,-526.16 414.94,-508.6 423.75,-496 428.81,-488.77 435.16,-482.69 442.29,-477.59"/>
<polygon fill="#e69138" stroke="#e69138" points="444.45,-480.37 451,-472.04 440.69,-474.46 444.45,-480.37"/>
<text text-anchor="middle" x="470.75" y="-503.8" font-family="Helvetica,sans-Serif" font-size="9.00" fill="#e69138">wrong side detected</text>
</g>
<!-- CHECK -->
<g id="node7" class="node">
<title>CHECK</title>
<polygon fill="#fff3cd" stroke="#bf9000" points="402.75,-370 321.75,-338 402.75,-306 483.75,-338 402.75,-370"/>
<text text-anchor="middle" x="402.75" y="-341.2" font-family="Helvetica,sans-Serif" font-size="11.00">12 corners?</text>
<text text-anchor="middle" x="402.75" y="-329.2" font-family="Helvetica,sans-Serif" font-size="11.00">(= 3 laps)</text>
</g>
<!-- TURN&#45;&gt;CHECK -->
<g id="edge6" class="edge">
<title>TURN&#45;&gt;CHECK</title>
<path fill="none" stroke="#333333" d="M146.5,-427.92C205.85,-407.32 295.22,-376.31 351.21,-356.88"/>
<polygon fill="#333333" stroke="#333333" points="352.62,-360.1 360.92,-353.52 350.32,-353.49 352.62,-360.1"/>
<text text-anchor="middle" x="291.75" y="-396.8" font-family="Helvetica,sans-Serif" font-size="9.00">turn complete (yaw)</text>
</g>
<!-- CHECK&#45;&gt;DRIVE -->
<g id="edge7" class="edge">
<title>CHECK&#45;&gt;DRIVE</title>
<path fill="none" stroke="#333333" d="M475.04,-341.49C536.94,-347.92 622.69,-367.97 665.75,-428 677.15,-443.89 675.57,-455.09 665.75,-472 650.83,-497.71 585.68,-521.01 527.31,-537.32"/>
<polygon fill="#333333" stroke="#333333" points="526.35,-533.95 517.63,-539.97 528.2,-540.7 526.35,-533.95"/>
<text text-anchor="middle" x="718.25" y="-447.8" font-family="Helvetica,sans-Serif" font-size="9.00">no &#160;&#45;&gt; &#160;continue lap</text>
</g>
<!-- STOPSEC -->
<g id="node8" class="node">
<title>STOPSEC</title>
<path fill="#e2f0d9" stroke="#38761d" d="M373.25,-248C373.25,-248 236.25,-248 236.25,-248 230.25,-248 224.25,-242 224.25,-236 224.25,-236 224.25,-216 224.25,-216 224.25,-210 230.25,-204 236.25,-204 236.25,-204 373.25,-204 373.25,-204 379.25,-204 385.25,-210 385.25,-216 385.25,-216 385.25,-236 385.25,-236 385.25,-242 379.25,-248 373.25,-248"/>
<text text-anchor="middle" x="304.75" y="-235.2" font-family="Helvetica,sans-Serif" font-size="11.00">STOP_IN_SECTION &#160;(Open)</text>
<text text-anchor="middle" x="304.75" y="-223.2" font-family="Helvetica,sans-Serif" font-size="11.00">stop in finish section,</text>
<text text-anchor="middle" x="304.75" y="-211.2" font-family="Helvetica,sans-Serif" font-size="11.00">immobile &gt;= 15 s</text>
</g>
<!-- CHECK&#45;&gt;STOPSEC -->
<g id="edge8" class="edge">
<title>CHECK&#45;&gt;STOPSEC</title>
<path fill="none" stroke="#333333" d="M382.21,-313.94C367.21,-297.11 346.79,-274.18 330.67,-256.1"/>
<polygon fill="#333333" stroke="#333333" points="332.87,-253.3 323.61,-248.17 327.65,-257.96 332.87,-253.3"/>
<text text-anchor="middle" x="380.25" y="-274.8" font-family="Helvetica,sans-Serif" font-size="9.00">yes + Open</text>
</g>
<!-- FINDP -->
<g id="node9" class="node">
<title>FINDP</title>
<path fill="#e2efda" stroke="#38761d" d="M570.25,-248C570.25,-248 433.25,-248 433.25,-248 427.25,-248 421.25,-242 421.25,-236 421.25,-236 421.25,-216 421.25,-216 421.25,-210 427.25,-204 433.25,-204 433.25,-204 570.25,-204 570.25,-204 576.25,-204 582.25,-210 582.25,-216 582.25,-216 582.25,-236 582.25,-236 582.25,-242 576.25,-248 570.25,-248"/>
<text text-anchor="middle" x="501.75" y="-235.2" font-family="Helvetica,sans-Serif" font-size="11.00">FIND_PARKING &#160;(Obstacle)</text>
<text text-anchor="middle" x="501.75" y="-223.2" font-family="Helvetica,sans-Serif" font-size="11.00">locate the two</text>
<text text-anchor="middle" x="501.75" y="-211.2" font-family="Helvetica,sans-Serif" font-size="11.00">magenta delimiters</text>
</g>
<!-- CHECK&#45;&gt;FINDP -->
<g id="edge9" class="edge">
<title>CHECK&#45;&gt;FINDP</title>
<path fill="none" stroke="#333333" d="M423.5,-313.94C438.78,-296.96 459.66,-273.77 476,-255.61"/>
<polygon fill="#333333" stroke="#333333" points="478.61,-257.94 482.7,-248.17 473.41,-253.26 478.61,-257.94"/>
<text text-anchor="middle" x="495.75" y="-274.8" font-family="Helvetica,sans-Serif" font-size="9.00">yes + Obstacle</text>
</g>
<!-- DONE -->
<g id="node11" class="node">
<title>DONE</title>
<path fill="#e2f0d9" stroke="#38761d" d="M416.25,-40C416.25,-40 339.25,-40 339.25,-40 333.25,-40 327.25,-34 327.25,-28 327.25,-28 327.25,-16 327.25,-16 327.25,-10 333.25,-4 339.25,-4 339.25,-4 416.25,-4 416.25,-4 422.25,-4 428.25,-10 428.25,-16 428.25,-16 428.25,-28 428.25,-28 428.25,-34 422.25,-40 416.25,-40"/>
<path fill="none" stroke="#38761d" d="M420.25,-44C420.25,-44 335.25,-44 335.25,-44 329.25,-44 323.25,-38 323.25,-32 323.25,-32 323.25,-12 323.25,-12 323.25,-6 329.25,0 335.25,0 335.25,0 420.25,0 420.25,0 426.25,0 432.25,-6 432.25,-12 432.25,-12 432.25,-32 432.25,-32 432.25,-38 426.25,-44 420.25,-44"/>
<text text-anchor="middle" x="377.75" y="-19.2" font-family="Helvetica,sans-Serif" font-size="11.00">STOP / PARKED</text>
</g>
<!-- STOPSEC&#45;&gt;DONE -->
<g id="edge10" class="edge">
<title>STOPSEC&#45;&gt;DONE</title>
<path fill="none" stroke="#333333" d="M312.42,-203.76C325.38,-167.92 351.62,-95.29 366.61,-53.83"/>
<polygon fill="#333333" stroke="#333333" points="369.96,-54.85 370.07,-44.25 363.38,-52.47 369.96,-54.85"/>
</g>
<!-- PARK -->
<g id="node10" class="node">
<title>PARK</title>
<path fill="#e2efda" stroke="#38761d" d="M522.75,-146C522.75,-146 436.75,-146 436.75,-146 430.75,-146 424.75,-140 424.75,-134 424.75,-134 424.75,-114 424.75,-114 424.75,-108 430.75,-102 436.75,-102 436.75,-102 522.75,-102 522.75,-102 528.75,-102 534.75,-108 534.75,-114 534.75,-114 534.75,-134 534.75,-134 534.75,-140 528.75,-146 522.75,-146"/>
<text text-anchor="middle" x="479.75" y="-133.2" font-family="Helvetica,sans-Serif" font-size="11.00">PARK &#160;(Obstacle)</text>
<text text-anchor="middle" x="479.75" y="-121.2" font-family="Helvetica,sans-Serif" font-size="11.00">reverse&#45;S, align</text>
<text text-anchor="middle" x="479.75" y="-109.2" font-family="Helvetica,sans-Serif" font-size="11.00">parallel to wall</text>
</g>
<!-- FINDP&#45;&gt;PARK -->
<g id="edge11" class="edge">
<title>FINDP&#45;&gt;PARK</title>
<path fill="none" stroke="#333333" d="M497.08,-203.79C494.05,-190 490.04,-171.78 486.64,-156.34"/>
<polygon fill="#333333" stroke="#333333" points="489.98,-155.19 484.41,-146.18 483.14,-156.7 489.98,-155.19"/>
<text text-anchor="middle" x="508.75" y="-172.8" font-family="Helvetica,sans-Serif" font-size="9.00">aligned</text>
</g>
<!-- PARK&#45;&gt;DONE -->
<g id="edge12" class="edge">
<title>PARK&#45;&gt;DONE</title>
<path fill="none" stroke="#333333" d="M458.12,-101.79C443.11,-87.08 422.95,-67.31 406.57,-51.26"/>
<polygon fill="#333333" stroke="#333333" points="408.94,-48.68 399.35,-44.18 404.04,-53.68 408.94,-48.68"/>
<text text-anchor="middle" x="448.75" y="-70.8" font-family="Helvetica,sans-Serif" font-size="9.00">parked</text>
</g>
<!-- RECOVERY&#45;&gt;DRIVE -->
<g id="edge14" class="edge">
<title>RECOVERY&#45;&gt;DRIVE</title>
<path fill="none" stroke="#e69138" stroke-dasharray="5,2" d="M543.23,-472.2C539.97,-486.08 533.88,-503.84 522.75,-516 516,-523.37 507.8,-529.65 499.07,-534.96"/>
<polygon fill="#e69138" stroke="#e69138" points="497.19,-532 490.19,-539.96 500.62,-538.1 497.19,-532"/>
<text text-anchor="middle" x="557.75" y="-503.8" font-family="Helvetica,sans-Serif" font-size="9.00" fill="#e69138">corrected</text>
</g>
<!-- G1 -->
<g id="node14" class="node">
<title>G1</title>
<path fill="#cfe2f3" stroke="#1f4e79" d="M644.25,-977C644.25,-977 589.25,-977 589.25,-977 583.25,-977 577.25,-971 577.25,-965 577.25,-965 577.25,-953 577.25,-953 577.25,-947 583.25,-941 589.25,-941 589.25,-941 644.25,-941 644.25,-941 650.25,-941 656.25,-947 656.25,-953 656.25,-953 656.25,-965 656.25,-965 656.25,-971 650.25,-977 644.25,-977"/>
<text text-anchor="middle" x="616.75" y="-956.5" font-family="Helvetica,sans-Serif" font-size="10.00">normal state</text>
</g>
<!-- G2 -->
<g id="node15" class="node">
<title>G2</title>
<path fill="#e2f0d9" stroke="#38761d" d="M648.75,-888C648.75,-888 584.75,-888 584.75,-888 578.75,-888 572.75,-882 572.75,-876 572.75,-876 572.75,-864 572.75,-864 572.75,-858 578.75,-852 584.75,-852 584.75,-852 648.75,-852 648.75,-852 654.75,-852 660.75,-858 660.75,-864 660.75,-864 660.75,-876 660.75,-876 660.75,-882 654.75,-888 648.75,-888"/>
<text text-anchor="middle" x="616.75" y="-867.5" font-family="Helvetica,sans-Serif" font-size="10.00">terminal / goal</text>
</g>
<!-- G1&#45;&gt;G2 -->
<!-- G3 -->
<g id="node16" class="node">
<title>G3</title>
<path fill="#fff3cd" stroke="#bf9000" d="M605.53,-785.74C605.53,-785.74 580.56,-776.26 580.56,-776.26 574.95,-774.13 574.95,-769.87 580.56,-767.74 580.56,-767.74 605.53,-758.26 605.53,-758.26 611.14,-756.13 622.36,-756.13 627.97,-758.26 627.97,-758.26 652.94,-767.74 652.94,-767.74 658.55,-769.87 658.55,-774.13 652.94,-776.26 652.94,-776.26 627.97,-785.74 627.97,-785.74 622.36,-787.87 611.14,-787.87 605.53,-785.74"/>
<text text-anchor="middle" x="616.75" y="-769.5" font-family="Helvetica,sans-Serif" font-size="10.00">decision</text>
</g>
<!-- G2&#45;&gt;G3 -->
<!-- G4 -->
<g id="node17" class="node">
<title>G4</title>
<path fill="#ffe0e0" stroke="#c00000" d="M631.75,-682C631.75,-682 601.75,-682 601.75,-682 595.75,-682 589.75,-676 589.75,-670 589.75,-670 589.75,-658 589.75,-658 589.75,-652 595.75,-646 601.75,-646 601.75,-646 631.75,-646 631.75,-646 637.75,-646 643.75,-652 643.75,-658 643.75,-658 643.75,-670 643.75,-670 643.75,-676 637.75,-682 631.75,-682"/>
<text text-anchor="middle" x="616.75" y="-661.5" font-family="Helvetica,sans-Serif" font-size="10.00">failsafe</text>
</g>
<!-- G3&#45;&gt;G4 -->
<!-- G5 -->
<g id="node18" class="node">
<title>G5</title>
<path fill="#fde9d9" stroke="#e69138" d="M634.25,-580C634.25,-580 599.25,-580 599.25,-580 593.25,-580 587.25,-574 587.25,-568 587.25,-568 587.25,-556 587.25,-556 587.25,-550 593.25,-544 599.25,-544 599.25,-544 634.25,-544 634.25,-544 640.25,-544 646.25,-550 646.25,-556 646.25,-556 646.25,-568 646.25,-568 646.25,-574 640.25,-580 634.25,-580"/>
<text text-anchor="middle" x="616.75" y="-559.5" font-family="Helvetica,sans-Serif" font-size="10.00">recovery</text>
</g>
<!-- G4&#45;&gt;G5 -->
</g>
</svg>
