<?xml version="1.0" encoding="UTF-8" standalone="no"?>
<!DOCTYPE svg PUBLIC "-//W3C//DTD SVG 1.1//EN"
 "http://www.w3.org/Graphics/SVG/1.1/DTD/svg11.dtd">
<!-- Generated by graphviz version 2.43.0 (0)
 -->
<!-- Title: wiring Pages: 1 -->
<svg width="1937pt" height="689pt"
 viewBox="0.00 0.00 1936.60 688.60" xmlns="http://www.w3.org/2000/svg" xmlns:xlink="http://www.w3.org/1999/xlink">
<g id="graph0" class="graph" transform="scale(1 1) rotate(0) translate(28.8 659.8)">
<title>wiring</title>
<polygon fill="white" stroke="transparent" points="-28.8,28.8 -28.8,-659.8 1907.8,-659.8 1907.8,28.8 -28.8,28.8"/>
<text text-anchor="middle" x="939.5" y="-615" font-family="Helvetica,sans-Serif" font-size="15.00">CHUISA ARCITEP &#45; Wiring &amp; Power Diagram (WRO 2026 Future Engineers)</text>
<text text-anchor="middle" x="939.5" y="-598" font-family="Helvetica,sans-Serif" font-size="15.00">Bench config (Phase 1&#45;A). &#160;All modules share a COMMON GROUND (essential for UART and I2C). &#160;[TBD] = pending measurement.</text>
<g id="clust1" class="cluster">
<title>cluster_legend</title>
<polygon fill="white" stroke="#aaaaaa" stroke-dasharray="5,2" points="8,-509 8,-581 1359,-581 1359,-509 8,-509"/>
<text text-anchor="middle" x="683.5" y="-568.2" font-family="Helvetica,sans-Serif" font-size="11.00">Legend</text>
</g>
<!-- LiPoA -->
<g id="node1" class="node">
<title>LiPoA</title>
<path fill="#ffe0e0" stroke="#c00000" d="M106.5,-169C106.5,-169 36.5,-169 36.5,-169 30.5,-169 24.5,-163 24.5,-157 24.5,-157 24.5,-145 24.5,-145 24.5,-139 30.5,-133 36.5,-133 36.5,-133 106.5,-133 106.5,-133 112.5,-133 118.5,-139 118.5,-145 118.5,-145 118.5,-157 118.5,-157 118.5,-163 112.5,-169 106.5,-169"/>
<text text-anchor="middle" x="71.5" y="-154.2" font-family="Helvetica,sans-Serif" font-size="11.00">LiPo A · 3S</text>
<text text-anchor="middle" x="71.5" y="-142.2" font-family="Helvetica,sans-Serif" font-size="11.00">11.1 V &#160;(logic)</text>
</g>
<!-- DPST -->
<g id="node3" class="node">
<title>DPST</title>
<path fill="#fff3cd" stroke="#bf9000" stroke-width="2" d="M325,-145C325,-145 242,-145 242,-145 236,-145 230,-139 230,-133 230,-133 230,-101 230,-101 230,-95 236,-89 242,-89 242,-89 325,-89 325,-89 331,-89 337,-95 337,-101 337,-101 337,-133 337,-133 337,-139 331,-145 325,-145"/>
<text text-anchor="middle" x="283.5" y="-132.2" font-family="Helvetica,sans-Serif" font-size="11.00">DPST SWITCH</text>
<text text-anchor="middle" x="283.5" y="-120.2" font-family="Helvetica,sans-Serif" font-size="11.00">ONE switch cuts</text>
<text text-anchor="middle" x="283.5" y="-108.2" font-family="Helvetica,sans-Serif" font-size="11.00">BOTH batteries</text>
<text text-anchor="middle" x="283.5" y="-96.2" font-family="Helvetica,sans-Serif" font-size="11.00">(rule 9.10)</text>
</g>
<!-- LiPoA&#45;&gt;DPST -->
<g id="edge1" class="edge">
<title>LiPoA&#45;&gt;DPST</title>
<path fill="none" stroke="#c00000" stroke-width="2.2" d="M118.59,-143.54C148.35,-138.72 187.44,-132.39 219.99,-127.12"/>
<polygon fill="#c00000" stroke="#c00000" stroke-width="2.2" points="220.55,-130.58 229.86,-125.52 219.43,-123.67 220.55,-130.58"/>
<text text-anchor="middle" x="178.5" y="-139.8" font-family="Helvetica,sans-Serif" font-size="9.00">11.1 V</text>
</g>
<!-- LiPoB -->
<g id="node2" class="node">
<title>LiPoB</title>
<path fill="#ffe0e0" stroke="#c00000" d="M110,-101C110,-101 33,-101 33,-101 27,-101 21,-95 21,-89 21,-89 21,-77 21,-77 21,-71 27,-65 33,-65 33,-65 110,-65 110,-65 116,-65 122,-71 122,-77 122,-77 122,-89 122,-89 122,-95 116,-101 110,-101"/>
<text text-anchor="middle" x="71.5" y="-86.2" font-family="Helvetica,sans-Serif" font-size="11.00">LiPo B · 3S</text>
<text text-anchor="middle" x="71.5" y="-74.2" font-family="Helvetica,sans-Serif" font-size="11.00">11.1 V &#160;(motor)</text>
</g>
<!-- LiPoB&#45;&gt;DPST -->
<g id="edge2" class="edge">
<title>LiPoB&#45;&gt;DPST</title>
<path fill="none" stroke="#c00000" stroke-width="2.2" d="M122,-91.01C151.22,-95.74 188.47,-101.78 219.74,-106.84"/>
<polygon fill="#c00000" stroke="#c00000" stroke-width="2.2" points="219.23,-110.3 229.66,-108.44 220.35,-103.39 219.23,-110.3"/>
<text text-anchor="middle" x="178.5" y="-105.8" font-family="Helvetica,sans-Serif" font-size="9.00">11.1 V</text>
</g>
<!-- Poly -->
<g id="node4" class="node">
<title>Poly</title>
<path fill="#fde9d9" stroke="#e69138" d="M530,-135C530,-135 428,-135 428,-135 422,-135 416,-129 416,-123 416,-123 416,-111 416,-111 416,-105 422,-99 428,-99 428,-99 530,-99 530,-99 536,-99 542,-105 542,-111 542,-111 542,-123 542,-123 542,-129 536,-135 530,-135"/>
<text text-anchor="middle" x="479" y="-120.2" font-family="Helvetica,sans-Serif" font-size="11.00">PolySwitch</text>
<text text-anchor="middle" x="479" y="-108.2" font-family="Helvetica,sans-Serif" font-size="11.00">RXEF300 &#160;(3 A hold)</text>
</g>
<!-- DPST&#45;&gt;Poly -->
<g id="edge3" class="edge">
<title>DPST&#45;&gt;Poly</title>
<path fill="none" stroke="#c00000" stroke-width="2.2" d="M337.12,-117C358.18,-117 382.79,-117 405.49,-117"/>
<polygon fill="#c00000" stroke="#c00000" stroke-width="2.2" points="405.77,-120.5 415.77,-117 405.77,-113.5 405.77,-120.5"/>
<text text-anchor="middle" x="376.5" y="-119.8" font-family="Helvetica,sans-Serif" font-size="9.00">A</text>
</g>
<!-- Fuse -->
<g id="node5" class="node">
<title>Fuse</title>
<path fill="#fde9d9" stroke="#e69138" stroke-dasharray="5,2" d="M509,-485C509,-485 449,-485 449,-485 443,-485 437,-479 437,-473 437,-473 437,-461 437,-461 437,-455 443,-449 449,-449 449,-449 509,-449 509,-449 515,-449 521,-455 521,-461 521,-461 521,-473 521,-473 521,-479 515,-485 509,-485"/>
<text text-anchor="middle" x="479" y="-470.2" font-family="Helvetica,sans-Serif" font-size="11.00">Glass fuse</text>
<text text-anchor="middle" x="479" y="-458.2" font-family="Helvetica,sans-Serif" font-size="11.00">[rating TBD]</text>
</g>
<!-- DPST&#45;&gt;Fuse -->
<g id="edge5" class="edge">
<title>DPST&#45;&gt;Fuse</title>
<path fill="none" stroke="#c00000" stroke-width="2.2" d="M300.01,-145.05C336.42,-210.91 427.02,-374.79 462.96,-439.8"/>
<polygon fill="#c00000" stroke="#c00000" stroke-width="2.2" points="459.95,-441.59 467.86,-448.65 466.08,-438.21 459.95,-441.59"/>
<text text-anchor="middle" x="376.5" y="-284.8" font-family="Helvetica,sans-Serif" font-size="9.00">B</text>
</g>
<!-- UBEC -->
<g id="node7" class="node">
<title>UBEC</title>
<path fill="#e2f0d9" stroke="#38761d" d="M526.5,-60C526.5,-60 431.5,-60 431.5,-60 425.5,-60 419.5,-54 419.5,-48 419.5,-48 419.5,-36 419.5,-36 419.5,-30 425.5,-24 431.5,-24 431.5,-24 526.5,-24 526.5,-24 532.5,-24 538.5,-30 538.5,-36 538.5,-36 538.5,-48 538.5,-48 538.5,-54 532.5,-60 526.5,-60"/>
<text text-anchor="middle" x="479" y="-45.2" font-family="Helvetica,sans-Serif" font-size="11.00">UBEC</text>
<text text-anchor="middle" x="479" y="-33.2" font-family="Helvetica,sans-Serif" font-size="11.00">6 V (set on bench)</text>
</g>
<!-- DPST&#45;&gt;UBEC -->
<g id="edge4" class="edge">
<title>DPST&#45;&gt;UBEC</title>
<path fill="none" stroke="#c00000" stroke-width="2.2" d="M337.12,-96.6C363.33,-86.44 395.05,-74.15 421.74,-63.8"/>
<polygon fill="#c00000" stroke="#c00000" stroke-width="2.2" points="423.27,-66.97 431.33,-60.09 420.74,-60.44 423.27,-66.97"/>
<text text-anchor="middle" x="376.5" y="-84.8" font-family="Helvetica,sans-Serif" font-size="9.00">A</text>
</g>
<!-- Mini -->
<g id="node6" class="node">
<title>Mini</title>
<path fill="#e2f0d9" stroke="#38761d" d="M702,-135C702,-135 632,-135 632,-135 626,-135 620,-129 620,-123 620,-123 620,-111 620,-111 620,-105 626,-99 632,-99 632,-99 702,-99 702,-99 708,-99 714,-105 714,-111 714,-111 714,-123 714,-123 714,-129 708,-135 702,-135"/>
<text text-anchor="middle" x="667" y="-120.2" font-family="Helvetica,sans-Serif" font-size="11.00">Mini560</text>
<text text-anchor="middle" x="667" y="-108.2" font-family="Helvetica,sans-Serif" font-size="11.00">5 V fixed / 5 A</text>
</g>
<!-- Poly&#45;&gt;Mini -->
<g id="edge6" class="edge">
<title>Poly&#45;&gt;Mini</title>
<path fill="none" stroke="#c00000" stroke-width="2.2" d="M542.19,-117C563.98,-117 588.3,-117 609.58,-117"/>
<polygon fill="#c00000" stroke="#c00000" stroke-width="2.2" points="609.76,-120.5 619.76,-117 609.76,-113.5 609.76,-120.5"/>
</g>
<!-- Cytron -->
<g id="node8" class="node">
<title>Cytron</title>
<path fill="#e2f0d9" stroke="#38761d" d="M1612,-485C1612,-485 1540,-485 1540,-485 1534,-485 1528,-479 1528,-473 1528,-473 1528,-461 1528,-461 1528,-455 1534,-449 1540,-449 1540,-449 1612,-449 1612,-449 1618,-449 1624,-455 1624,-461 1624,-461 1624,-473 1624,-473 1624,-479 1618,-485 1612,-485"/>
<text text-anchor="middle" x="1576" y="-470.2" font-family="Helvetica,sans-Serif" font-size="11.00">Cytron MD10C</text>
<text text-anchor="middle" x="1576" y="-458.2" font-family="Helvetica,sans-Serif" font-size="11.00">motor driver</text>
</g>
<!-- Fuse&#45;&gt;Cytron -->
<g id="edge9" class="edge">
<title>Fuse&#45;&gt;Cytron</title>
<path fill="none" stroke="#c00000" stroke-width="2.2" d="M521,-467C558.69,-467 616.11,-467 666,-467 666,-467 666,-467 1285,-467 1365.74,-467 1459.13,-467 1517.63,-467"/>
<polygon fill="#c00000" stroke="#c00000" stroke-width="2.2" points="1517.78,-470.5 1527.78,-467 1517.78,-463.5 1517.78,-470.5"/>
</g>
<!-- Pi -->
<g id="node9" class="node">
<title>Pi</title>
<path fill="#cfe2f3" stroke="#1f4e79" stroke-width="2.2" d="M972,-153C972,-153 851,-153 851,-153 845,-153 839,-147 839,-141 839,-141 839,-121 839,-121 839,-115 845,-109 851,-109 851,-109 972,-109 972,-109 978,-109 984,-115 984,-121 984,-121 984,-141 984,-141 984,-147 978,-153 972,-153"/>
<text text-anchor="middle" x="911.5" y="-140.2" font-family="Helvetica,sans-Serif" font-size="11.00">RASPBERRY PI 5</text>
<text text-anchor="middle" x="911.5" y="-128.2" font-family="Helvetica,sans-Serif" font-size="11.00">vision + high&#45;level FSM</text>
<text text-anchor="middle" x="911.5" y="-116.2" font-family="Helvetica,sans-Serif" font-size="11.00">(needs 5 V)</text>
</g>
<!-- Mini&#45;&gt;Pi -->
<g id="edge7" class="edge">
<title>Mini&#45;&gt;Pi</title>
<path fill="none" stroke="#38761d" stroke-width="2.2" d="M714.18,-119.67C746.48,-121.53 790.48,-124.07 828.65,-126.27"/>
<polygon fill="#38761d" stroke="#38761d" stroke-width="2.2" points="828.54,-129.77 838.73,-126.86 828.94,-122.79 828.54,-129.77"/>
<text text-anchor="middle" x="779" y="-127.8" font-family="Helvetica,sans-Serif" font-size="9.00">5 V / 5 A</text>
</g>
<!-- Servo -->
<g id="node15" class="node">
<title>Servo</title>
<path fill="#e2f0d9" stroke="#38761d" d="M1613.5,-36C1613.5,-36 1538.5,-36 1538.5,-36 1532.5,-36 1526.5,-30 1526.5,-24 1526.5,-24 1526.5,-12 1526.5,-12 1526.5,-6 1532.5,0 1538.5,0 1538.5,0 1613.5,0 1613.5,0 1619.5,0 1625.5,-6 1625.5,-12 1625.5,-12 1625.5,-24 1625.5,-24 1625.5,-30 1619.5,-36 1613.5,-36"/>
<text text-anchor="middle" x="1576" y="-21.2" font-family="Helvetica,sans-Serif" font-size="11.00">Servo LF&#45;20MG</text>
<text text-anchor="middle" x="1576" y="-9.2" font-family="Helvetica,sans-Serif" font-size="11.00">steering &#160;(6 V)</text>
</g>
<!-- UBEC&#45;&gt;Servo -->
<g id="edge8" class="edge">
<title>UBEC&#45;&gt;Servo</title>
<path fill="none" stroke="#e69138" stroke-width="2.2" d="M533.04,-23.9C569.88,-12.91 620.37,-1 666,-1 666,-1 666,-1 1285,-1 1365.17,-1 1457.59,-7.55 1516.14,-12.52"/>
<polygon fill="#e69138" stroke="#e69138" stroke-width="2.2" points="1516.04,-16.03 1526.31,-13.4 1516.64,-9.05 1516.04,-16.03"/>
<text text-anchor="middle" x="911.5" y="-3.8" font-family="Helvetica,sans-Serif" font-size="9.00">6 V</text>
</g>
<!-- Motor -->
<g id="node16" class="node">
<title>Motor</title>
<path fill="#e2f0d9" stroke="#38761d" d="M1867,-384C1867,-384 1764,-384 1764,-384 1758,-384 1752,-378 1752,-372 1752,-372 1752,-360 1752,-360 1752,-354 1758,-348 1764,-348 1764,-348 1867,-348 1867,-348 1873,-348 1879,-354 1879,-360 1879,-360 1879,-372 1879,-372 1879,-378 1873,-384 1867,-384"/>
<text text-anchor="middle" x="1815.5" y="-369.2" font-family="Helvetica,sans-Serif" font-size="11.00">Motor JGB37&#45;520</text>
<text text-anchor="middle" x="1815.5" y="-357.2" font-family="Helvetica,sans-Serif" font-size="11.00">12 V + Hall encoder</text>
</g>
<!-- Cytron&#45;&gt;Motor -->
<g id="edge10" class="edge">
<title>Cytron&#45;&gt;Motor</title>
<path fill="none" stroke="#c00000" stroke-width="2.2" d="M1620.32,-448.88C1632.52,-443.76 1645.78,-438.18 1658,-433 1692.99,-418.17 1732.31,-401.33 1762.79,-388.25"/>
<polygon fill="#c00000" stroke="#c00000" stroke-width="2.2" points="1764.55,-391.3 1772.36,-384.14 1761.79,-384.87 1764.55,-391.3"/>
<text text-anchor="middle" x="1705" y="-419.8" font-family="Helvetica,sans-Serif" font-size="9.00">12 V</text>
</g>
<!-- Arduino -->
<g id="node10" class="node">
<title>Arduino</title>
<path fill="#cfe2f3" stroke="#1f4e79" stroke-width="2.2" d="M1354,-264C1354,-264 1214,-264 1214,-264 1208,-264 1202,-258 1202,-252 1202,-252 1202,-232 1202,-232 1202,-226 1208,-220 1214,-220 1214,-220 1354,-220 1354,-220 1360,-220 1366,-226 1366,-232 1366,-232 1366,-252 1366,-252 1366,-258 1360,-264 1354,-264"/>
<text text-anchor="middle" x="1284" y="-251.2" font-family="Helvetica,sans-Serif" font-size="11.00">ARDUINO NANO EVERY</text>
<text text-anchor="middle" x="1284" y="-239.2" font-family="Helvetica,sans-Serif" font-size="11.00">real&#45;time control + failsafe</text>
<text text-anchor="middle" x="1284" y="-227.2" font-family="Helvetica,sans-Serif" font-size="11.00">(5 V logic)</text>
</g>
<!-- Pi&#45;&gt;Arduino -->
<g id="edge12" class="edge">
<title>Pi&#45;&gt;Arduino</title>
<path fill="none" stroke="#1f4e79" stroke-width="1.6" d="M984.38,-152.53C1046.03,-171 1134.89,-197.63 1199.65,-217.03"/>
<polygon fill="#1f4e79" stroke="#1f4e79" stroke-width="1.6" points="1198.84,-220.44 1209.42,-219.96 1200.85,-213.73 1198.84,-220.44"/>
<text text-anchor="middle" x="1093" y="-209.8" font-family="Helvetica,sans-Serif" font-size="9.00">UART &#160;Pi&#45;TX (pin8, 3.3 V) &#45;&gt; RX0</text>
</g>
<!-- Arduino&#45;&gt;Cytron -->
<g id="edge18" class="edge">
<title>Arduino&#45;&gt;Cytron</title>
<path fill="none" stroke="#1f4e79" stroke-width="1.6" d="M1296.68,-264.1C1315.07,-296.98 1353.68,-358.86 1402,-396 1436.47,-422.49 1482.22,-440.7 1518.01,-452.03"/>
<polygon fill="#1f4e79" stroke="#1f4e79" stroke-width="1.6" points="1517.23,-455.46 1527.82,-455.05 1519.29,-448.77 1517.23,-455.46"/>
<text text-anchor="middle" x="1430" y="-430.8" font-family="Helvetica,sans-Serif" font-size="9.00">PWM + DIR</text>
</g>
<!-- ToF1 -->
<g id="node12" class="node">
<title>ToF1</title>
<path fill="#d9d2e9" stroke="#674ea7" d="M1622.5,-275C1622.5,-275 1529.5,-275 1529.5,-275 1523.5,-275 1517.5,-269 1517.5,-263 1517.5,-263 1517.5,-251 1517.5,-251 1517.5,-245 1523.5,-239 1529.5,-239 1529.5,-239 1622.5,-239 1622.5,-239 1628.5,-239 1634.5,-245 1634.5,-251 1634.5,-251 1634.5,-263 1634.5,-263 1634.5,-269 1628.5,-275 1622.5,-275"/>
<text text-anchor="middle" x="1576" y="-260.2" font-family="Helvetica,sans-Serif" font-size="11.00">VL53L1X #1</text>
<text text-anchor="middle" x="1576" y="-248.2" font-family="Helvetica,sans-Serif" font-size="11.00">0x2A · XSHUT=D2</text>
</g>
<!-- Arduino&#45;&gt;ToF1 -->
<g id="edge15" class="edge">
<title>Arduino&#45;&gt;ToF1</title>
<path fill="none" stroke="#674ea7" stroke-width="1.6" d="M1366.17,-246.2C1410.59,-248.5 1465.01,-251.31 1507.16,-253.49"/>
<polygon fill="#674ea7" stroke="#674ea7" stroke-width="1.6" points="1507.15,-257 1517.32,-254.02 1507.51,-250 1507.15,-257"/>
<text text-anchor="middle" x="1430" y="-253.8" font-family="Helvetica,sans-Serif" font-size="9.00">I2C &#160;(A4/A5)</text>
</g>
<!-- ToF2 -->
<g id="node13" class="node">
<title>ToF2</title>
<path fill="#d9d2e9" stroke="#674ea7" d="M1622,-207C1622,-207 1530,-207 1530,-207 1524,-207 1518,-201 1518,-195 1518,-195 1518,-183 1518,-183 1518,-177 1524,-171 1530,-171 1530,-171 1622,-171 1622,-171 1628,-171 1634,-177 1634,-183 1634,-183 1634,-195 1634,-195 1634,-201 1628,-207 1622,-207"/>
<text text-anchor="middle" x="1576" y="-192.2" font-family="Helvetica,sans-Serif" font-size="11.00">VL53L1X #2</text>
<text text-anchor="middle" x="1576" y="-180.2" font-family="Helvetica,sans-Serif" font-size="11.00">0x29 · XSHUT=D3</text>
</g>
<!-- Arduino&#45;&gt;ToF2 -->
<g id="edge16" class="edge">
<title>Arduino&#45;&gt;ToF2</title>
<path fill="none" stroke="#674ea7" stroke-width="1.6" d="M1366.17,-227.17C1410.84,-219 1465.62,-208.99 1507.86,-201.27"/>
<polygon fill="#674ea7" stroke="#674ea7" stroke-width="1.6" points="1508.56,-204.7 1517.77,-199.46 1507.3,-197.81 1508.56,-204.7"/>
</g>
<!-- MPU -->
<g id="node14" class="node">
<title>MPU</title>
<path fill="#d9d2e9" stroke="#674ea7" d="M1612.5,-417C1612.5,-417 1539.5,-417 1539.5,-417 1533.5,-417 1527.5,-411 1527.5,-405 1527.5,-405 1527.5,-393 1527.5,-393 1527.5,-387 1533.5,-381 1539.5,-381 1539.5,-381 1612.5,-381 1612.5,-381 1618.5,-381 1624.5,-387 1624.5,-393 1624.5,-393 1624.5,-405 1624.5,-405 1624.5,-411 1618.5,-417 1612.5,-417"/>
<text text-anchor="middle" x="1576" y="-402.2" font-family="Helvetica,sans-Serif" font-size="11.00">MPU&#45;6050 IMU</text>
<text text-anchor="middle" x="1576" y="-390.2" font-family="Helvetica,sans-Serif" font-size="11.00">0x68</text>
</g>
<!-- Arduino&#45;&gt;MPU -->
<g id="edge17" class="edge">
<title>Arduino&#45;&gt;MPU</title>
<path fill="none" stroke="#674ea7" stroke-width="1.6" d="M1300.5,-264.01C1320.7,-290.96 1358.59,-335.96 1402,-360 1437.42,-379.61 1482.11,-389.37 1517.19,-394.22"/>
<polygon fill="#674ea7" stroke="#674ea7" stroke-width="1.6" points="1516.92,-397.71 1527.28,-395.51 1517.81,-390.77 1516.92,-397.71"/>
</g>
<!-- Arduino&#45;&gt;Servo -->
<g id="edge19" class="edge">
<title>Arduino&#45;&gt;Servo</title>
<path fill="none" stroke="#1f4e79" stroke-width="1.6" d="M1305.52,-219.9C1341.12,-182.5 1417.83,-105.93 1494,-56 1502.48,-50.44 1511.89,-45.25 1521.22,-40.6"/>
<polygon fill="#1f4e79" stroke="#1f4e79" stroke-width="1.6" points="1523,-43.63 1530.48,-36.13 1519.96,-37.32 1523,-43.63"/>
<text text-anchor="middle" x="1430" y="-129.8" font-family="Helvetica,sans-Serif" font-size="9.00">PWM</text>
</g>
<!-- Divider -->
<g id="node19" class="node">
<title>Divider</title>
<path fill="#fff3cd" stroke="#bf9000" d="M1646,-116C1646,-116 1506,-116 1506,-116 1500,-116 1494,-110 1494,-104 1494,-104 1494,-84 1494,-84 1494,-78 1500,-72 1506,-72 1506,-72 1646,-72 1646,-72 1652,-72 1658,-78 1658,-84 1658,-84 1658,-104 1658,-104 1658,-110 1652,-116 1646,-116"/>
<text text-anchor="middle" x="1576" y="-103.2" font-family="Helvetica,sans-Serif" font-size="11.00">Voltage divider</text>
<text text-anchor="middle" x="1576" y="-91.2" font-family="Helvetica,sans-Serif" font-size="11.00">1k + 2.2k</text>
<text text-anchor="middle" x="1576" y="-79.2" font-family="Helvetica,sans-Serif" font-size="11.00">5 V &#45;&gt; 3.294 V (measured)</text>
</g>
<!-- Arduino&#45;&gt;Divider -->
<g id="edge13" class="edge">
<title>Arduino&#45;&gt;Divider</title>
<path fill="none" stroke="#1f4e79" stroke-width="1.6" d="M1328.42,-219.84C1380.35,-193.34 1467.24,-149 1522.79,-120.65"/>
<polygon fill="#1f4e79" stroke="#1f4e79" stroke-width="1.6" points="1524.45,-123.73 1531.76,-116.07 1521.26,-117.49 1524.45,-123.73"/>
<text text-anchor="middle" x="1430" y="-184.8" font-family="Helvetica,sans-Serif" font-size="9.00">TX1 (5 V)</text>
</g>
<!-- Camera -->
<g id="node11" class="node">
<title>Camera</title>
<path fill="#d9d2e9" stroke="#674ea7" d="M707,-203C707,-203 627,-203 627,-203 621,-203 615,-197 615,-191 615,-191 615,-179 615,-179 615,-173 621,-167 627,-167 627,-167 707,-167 707,-167 713,-167 719,-173 719,-179 719,-179 719,-191 719,-191 719,-197 713,-203 707,-203"/>
<text text-anchor="middle" x="667" y="-188.2" font-family="Helvetica,sans-Serif" font-size="11.00">Camera IMX708</text>
<text text-anchor="middle" x="667" y="-176.2" font-family="Helvetica,sans-Serif" font-size="11.00">152 deg fisheye</text>
</g>
<!-- Camera&#45;&gt;Pi -->
<g id="edge11" class="edge">
<title>Camera&#45;&gt;Pi</title>
<path fill="none" stroke="#1f4e79" stroke-width="1.6" d="M719.13,-173.61C750.89,-166.54 792.42,-157.3 828.67,-149.22"/>
<polygon fill="#1f4e79" stroke="#1f4e79" stroke-width="1.6" points="829.74,-152.57 838.74,-146.98 828.22,-145.74 829.74,-152.57"/>
<text text-anchor="middle" x="779" y="-167.8" font-family="Helvetica,sans-Serif" font-size="9.00">22&#45;pin CSI</text>
</g>
<!-- Motor&#45;&gt;Arduino -->
<g id="edge20" class="edge">
<title>Motor&#45;&gt;Arduino</title>
<path fill="none" stroke="#1f4e79" stroke-width="1.6" stroke-dasharray="5,2" d="M1751.86,-351.35C1687.25,-336.24 1583.58,-311.98 1494,-291 1455.52,-281.99 1413.07,-272.04 1376.53,-263.47"/>
<polygon fill="#1f4e79" stroke="#1f4e79" stroke-width="1.6" points="1376.92,-259.96 1366.39,-261.09 1375.32,-266.78 1376.92,-259.96"/>
<text text-anchor="middle" x="1576" y="-331.8" font-family="Helvetica,sans-Serif" font-size="9.00">encoder A/B &#160;[pending]</text>
</g>
<!-- Button -->
<g id="node17" class="node">
<title>Button</title>
<path fill="#f5f5f5" stroke="#888888" d="M959,-315C959,-315 864,-315 864,-315 858,-315 852,-309 852,-303 852,-303 852,-291 852,-291 852,-285 858,-279 864,-279 864,-279 959,-279 959,-279 965,-279 971,-285 971,-291 971,-291 971,-303 971,-303 971,-309 965,-315 959,-315"/>
<text text-anchor="middle" x="911.5" y="-300.2" font-family="Helvetica,sans-Serif" font-size="11.00">Start button</text>
<text text-anchor="middle" x="911.5" y="-288.2" font-family="Helvetica,sans-Serif" font-size="11.00">&#45;&gt; GPIO &#160;[pin TBD]</text>
</g>
<!-- Button&#45;&gt;Arduino -->
<g id="edge21" class="edge">
<title>Button&#45;&gt;Arduino</title>
<path fill="none" stroke="#1f4e79" stroke-width="1.6" d="M971.2,-289C1022.61,-281.92 1099.31,-271.15 1166,-261 1174.43,-259.72 1183.19,-258.35 1191.95,-256.97"/>
<polygon fill="#1f4e79" stroke="#1f4e79" stroke-width="1.6" points="1192.51,-260.42 1201.84,-255.39 1191.41,-253.51 1192.51,-260.42"/>
</g>
<!-- LED -->
<g id="node18" class="node">
<title>LED</title>
<path fill="#f5f5f5" stroke="#888888" d="M938,-247C938,-247 885,-247 885,-247 879,-247 873,-241 873,-235 873,-235 873,-223 873,-223 873,-217 879,-211 885,-211 885,-211 938,-211 938,-211 944,-211 950,-217 950,-223 950,-223 950,-235 950,-235 950,-241 944,-247 938,-247"/>
<text text-anchor="middle" x="911.5" y="-232.2" font-family="Helvetica,sans-Serif" font-size="11.00">Status LED</text>
<text text-anchor="middle" x="911.5" y="-220.2" font-family="Helvetica,sans-Serif" font-size="11.00">[pin TBD]</text>
</g>
<!-- LED&#45;&gt;Arduino -->
<g id="edge22" class="edge">
<title>LED&#45;&gt;Arduino</title>
<path fill="none" stroke="#1f4e79" stroke-width="1.6" d="M950.06,-230.32C1006.23,-232.29 1113.79,-236.06 1191.48,-238.79"/>
<polygon fill="#1f4e79" stroke="#1f4e79" stroke-width="1.6" points="1191.64,-242.3 1201.76,-239.15 1191.89,-235.3 1191.64,-242.3"/>
</g>
<!-- Divider&#45;&gt;Pi -->
<g id="edge14" class="edge">
<title>Divider&#45;&gt;Pi</title>
<path fill="none" stroke="#1f4e79" stroke-width="1.6" d="M1493.59,-98.15C1464.67,-99.65 1431.88,-101.37 1402,-103 1258.55,-110.83 1091.48,-120.51 994.29,-126.19"/>
<polygon fill="#1f4e79" stroke="#1f4e79" stroke-width="1.6" points="994.02,-122.7 984.24,-126.78 994.43,-129.69 994.02,-122.7"/>
<text text-anchor="middle" x="1284" y="-116.8" font-family="Helvetica,sans-Serif" font-size="9.00">&#45;&gt; RX (pin10) &#160;3.294 V</text>
</g>
<!-- L1 -->
<g id="node20" class="node">
<title>L1</title>
<path fill="#ffe0e0" stroke="#c00000" d="M115,-553C115,-553 28,-553 28,-553 22,-553 16,-547 16,-541 16,-541 16,-529 16,-529 16,-523 22,-517 28,-517 28,-517 115,-517 115,-517 121,-517 127,-523 127,-529 127,-529 127,-541 127,-541 127,-547 121,-553 115,-553"/>
<text text-anchor="middle" x="71.5" y="-532.5" font-family="Helvetica,sans-Serif" font-size="10.00">Power 11.1 V / 12 V</text>
</g>
<!-- L2 -->
<g id="node21" class="node">
<title>L2</title>
<path fill="#e2f0d9" stroke="#38761d" d="M298.5,-553C298.5,-553 268.5,-553 268.5,-553 262.5,-553 256.5,-547 256.5,-541 256.5,-541 256.5,-529 256.5,-529 256.5,-523 262.5,-517 268.5,-517 268.5,-517 298.5,-517 298.5,-517 304.5,-517 310.5,-523 310.5,-529 310.5,-529 310.5,-541 310.5,-541 310.5,-547 304.5,-553 298.5,-553"/>
<text text-anchor="middle" x="283.5" y="-532.5" font-family="Helvetica,sans-Serif" font-size="10.00">5 V rail</text>
</g>
<!-- L1&#45;&gt;L2 -->
<!-- L3 -->
<g id="node22" class="node">
<title>L3</title>
<path fill="#fde9d9" stroke="#e69138" d="M494,-553C494,-553 464,-553 464,-553 458,-553 452,-547 452,-541 452,-541 452,-529 452,-529 452,-523 458,-517 464,-517 464,-517 494,-517 494,-517 500,-517 506,-523 506,-529 506,-529 506,-541 506,-541 506,-547 500,-553 494,-553"/>
<text text-anchor="middle" x="479" y="-532.5" font-family="Helvetica,sans-Serif" font-size="10.00">6 V rail</text>
</g>
<!-- L2&#45;&gt;L3 -->
<!-- L4 -->
<g id="node23" class="node">
<title>L4</title>
<path fill="#cfe2f3" stroke="#1f4e79" d="M694,-553C694,-553 640,-553 640,-553 634,-553 628,-547 628,-541 628,-541 628,-529 628,-529 628,-523 634,-517 640,-517 640,-517 694,-517 694,-517 700,-517 706,-523 706,-529 706,-529 706,-541 706,-541 706,-547 700,-553 694,-553"/>
<text text-anchor="middle" x="667" y="-532.5" font-family="Helvetica,sans-Serif" font-size="10.00">Data / signal</text>
</g>
<!-- L3&#45;&gt;L4 -->
<!-- L5 -->
<g id="node24" class="node">
<title>L5</title>
<path fill="#d9d2e9" stroke="#674ea7" d="M926.5,-553C926.5,-553 896.5,-553 896.5,-553 890.5,-553 884.5,-547 884.5,-541 884.5,-541 884.5,-529 884.5,-529 884.5,-523 890.5,-517 896.5,-517 896.5,-517 926.5,-517 926.5,-517 932.5,-517 938.5,-523 938.5,-529 938.5,-529 938.5,-541 938.5,-541 938.5,-547 932.5,-553 926.5,-553"/>
<text text-anchor="middle" x="911.5" y="-532.5" font-family="Helvetica,sans-Serif" font-size="10.00">I2C bus</text>
</g>
<!-- L4&#45;&gt;L5 -->
<!-- L6 -->
<g id="node25" class="node">
<title>L6</title>
<path fill="none" stroke="#888888" stroke-dasharray="5,2" d="M1339,-553C1339,-553 1229,-553 1229,-553 1223,-553 1217,-547 1217,-541 1217,-541 1217,-529 1217,-529 1217,-523 1223,-517 1229,-517 1229,-517 1339,-517 1339,-517 1345,-517 1351,-523 1351,-529 1351,-529 1351,-541 1351,-541 1351,-547 1345,-553 1339,-553"/>
<text text-anchor="middle" x="1284" y="-532.5" font-family="Helvetica,sans-Serif" font-size="10.00">dashed = pending / TBD</text>
</g>
<!-- L5&#45;&gt;L6 -->
</g>
</svg>
